<?xml version="1.0" encoding="utf-8"?>
<!-- Generator: Adobe Illustrator 16.0.0, SVG Export Plug-In . SVG Version: 6.00 Build 0)  -->
<!DOCTYPE svg PUBLIC "-//W3C//DTD SVG 1.1//EN" "http://www.w3.org/Graphics/SVG/1.1/DTD/svg11.dtd">
<svg version="1.1" id="Layer_1" focusable="false" xmlns="http://www.w3.org/2000/svg" xmlns:xlink="http://www.w3.org/1999/xlink"
	 x="0px" y="0px" width="612px" height="792px" viewBox="0 0 612 792" enable-background="new 0 0 612 792" xml:space="preserve">
<path fill="#FFFFFF" d="M427.443,490.456l34-34c5.313-5.313,14.557-1.594,14.557,6.057V617c0,28.156-22.844,51-51,51H51
	c-28.156,0-51-22.844-51-51V243c0-28.156,22.844-51,51-51h290.594c7.544,0,11.369,9.138,6.057,14.556l-34,34
	c-1.594,1.594-3.719,2.444-6.057,2.444H51v374h374V496.406C425,494.175,425.85,492.05,427.443,490.456z M593.831,276.044
	L314.818,555.057l-96.05,10.625c-27.837,3.081-51.531-20.4-48.45-48.45l10.625-96.05l279.012-279.013
	c24.331-24.332,63.644-24.332,87.869,0l45.899,45.9C618.057,212.4,618.057,251.819,593.831,276.044L593.831,276.044z
	 M488.856,308.875l-61.731-61.731L229.712,444.662l-7.756,69.382l69.381-7.757L488.856,308.875z M557.706,224.194l-45.899-45.9
	c-4.356-4.356-11.476-4.356-15.726,0l-32.831,32.831l61.731,61.731l32.831-32.832C562.063,235.563,562.063,228.55,557.706,224.194z"
	/>
</svg>
